<?xml version="1.0" encoding="UTF-8"?>
<svg xmlns="http://www.w3.org/2000/svg" xmlns:xlink="http://www.w3.org/1999/xlink" width="82.095pt" height="63.243pt" viewBox="0 0 82.095 63.243" version="1.1">
<defs>
<clipPath id="clip1">
  <path d="M 12 6 L 70 6 L 70 63.242188 L 12 63.242188 Z M 12 6 "/>
</clipPath>
<clipPath id="clip2">
  <path d="M 45 10 L 82.09375 10 L 82.09375 59 L 45 59 Z M 45 10 "/>
</clipPath>
</defs>
<g id="surface1">
<g clip-path="url(#clip1)" clip-rule="nonzero">
<path style="fill:none;stroke-width:0.3985;stroke-linecap:butt;stroke-linejoin:miter;stroke:rgb(0%,0%,0%);stroke-opacity:1;stroke-miterlimit:10;" d="M 0.0006875 0.00103125 L 0.0006875 22.395563 M 0.0006875 34.297906 L 0.0006875 56.692438 L 12.473344 56.692438 M 44.219437 56.692438 L 56.692094 56.692438 L 56.692094 44.219781 M 56.692094 12.473688 L 56.692094 0.00103125 L 0.0006875 0.00103125 " transform="matrix(1,0,0,-1,12.304,63.044)"/>
</g>
<path style="fill:none;stroke-width:0.797;stroke-linecap:butt;stroke-linejoin:miter;stroke:rgb(0%,0%,0%);stroke-opacity:1;stroke-miterlimit:10;" d="M -11.905563 22.395563 L 11.906938 22.395563 M -5.952438 26.364313 L 5.953812 26.364313 M -11.905563 30.329156 L 11.906938 30.329156 M -5.952438 34.297906 L 5.953812 34.297906 " transform="matrix(1,0,0,-1,12.304,63.044)"/>
<path style="fill:none;stroke-width:0.797;stroke-linecap:butt;stroke-linejoin:bevel;stroke:rgb(0%,0%,0%);stroke-opacity:1;stroke-miterlimit:10;" d="M 12.074906 56.692438 L 15.117875 62.645563 L 20.410844 50.739313 L 25.699906 62.645563 L 30.992875 50.739313 L 36.281937 62.645563 L 41.574906 50.739313 L 44.617875 56.692438 " transform="matrix(1,0,0,-1,12.304,63.044)"/>
<g clip-path="url(#clip2)" clip-rule="nonzero">
<path style="fill:none;stroke-width:0.797;stroke-linecap:butt;stroke-linejoin:miter;stroke:rgb(0%,0%,0%);stroke-opacity:1;stroke-miterlimit:10;" d="M 69.391312 28.348688 C 69.391312 35.360406 63.707719 41.047906 56.692094 41.047906 C 49.680375 41.047906 43.992875 35.360406 43.992875 28.348688 C 43.992875 21.333063 49.680375 15.645563 56.692094 15.645563 C 63.707719 15.645563 69.391312 21.333063 69.391312 28.348688 Z M 69.391312 28.348688 " transform="matrix(1,0,0,-1,12.304,63.044)"/>
</g>
<path style="fill:none;stroke-width:0.797;stroke-linecap:butt;stroke-linejoin:bevel;stroke:rgb(0%,0%,0%);stroke-opacity:1;stroke-miterlimit:10;" d="M 56.692094 44.219781 L 56.692094 34.696344 C 60.199906 34.696344 63.043656 31.852594 63.043656 28.348688 C 63.043656 24.840875 60.199906 21.997125 56.692094 21.997125 L 56.692094 12.473688 " transform="matrix(1,0,0,-1,12.304,63.044)"/>
</g>
</svg>
