<?xml version="1.0" encoding="UTF-8"?>
<svg xmlns="http://www.w3.org/2000/svg" xmlns:xlink="http://www.w3.org/1999/xlink" width="57.091pt" height="6.749pt" viewBox="0 0 57.091 6.749" version="1.1">
<defs>
<clipPath id="clip1">
  <path d="M 0 5 L 57.089844 5 L 57.089844 6.75 L 0 6.75 Z M 0 5 "/>
</clipPath>
<clipPath id="clip2">
  <path d="M 11 0 L 46 0 L 46 6.75 L 11 6.75 Z M 11 0 "/>
</clipPath>
</defs>
<g id="surface1">
<g clip-path="url(#clip1)" clip-rule="nonzero">
<path style="fill:none;stroke-width:0.3985;stroke-linecap:butt;stroke-linejoin:miter;stroke:rgb(0%,0%,0%);stroke-opacity:1;stroke-miterlimit:10;" d="M 141.732219 -212.602313 L 154.204875 -212.602313 M 185.954875 -212.602313 L 198.427531 -212.602313 " transform="matrix(1,0,0,-1,-141.533,-206.407)"/>
</g>
<g clip-path="url(#clip2)" clip-rule="nonzero">
<path style="fill:none;stroke-width:0.797;stroke-linecap:butt;stroke-linejoin:bevel;stroke:rgb(0%,0%,0%);stroke-opacity:1;stroke-miterlimit:10;" d="M 153.806437 -212.758563 C 153.806437 -209.473406 155.630656 -206.809344 157.87675 -206.809344 C 160.122844 -206.809344 161.943156 -209.473406 161.943156 -212.758563 C 161.943156 -209.473406 163.767375 -206.809344 166.013469 -206.809344 C 168.259562 -206.809344 170.079875 -209.473406 170.079875 -212.758563 C 170.079875 -209.473406 171.904094 -206.809344 174.150187 -206.809344 C 176.396281 -206.809344 178.216594 -209.473406 178.216594 -212.758563 C 178.216594 -209.473406 180.036906 -206.809344 182.286906 -206.809344 C 184.533 -206.809344 186.353312 -209.473406 186.353312 -212.758563 " transform="matrix(1,0,0,-1,-141.533,-206.407)"/>
</g>
</g>
</svg>
